<mxfile host="Electron" modified="2023-09-07T14:05:45.999Z" agent="Mozilla/5.0 (Windows NT 10.0; Win64; x64) AppleWebKit/537.36 (KHTML, like Gecko) draw.io/21.6.5 Chrome/114.0.5735.243 Electron/25.3.1 Safari/537.36" etag="JPD0-dBtUT3z5Crsj3mW" version="21.6.5" type="device">
  <diagram name="Page-1" id="2YBvvXClWsGukQMizWep">
    <mxGraphModel dx="1418" dy="828" grid="1" gridSize="10" guides="1" tooltips="1" connect="1" arrows="1" fold="1" page="1" pageScale="1" pageWidth="827" pageHeight="1169" math="0" shadow="0">
      <root>
        <mxCell id="0" />
        <mxCell id="1" parent="0" />
        <mxCell id="GaK5QNJvzm5GvN5kbOxA-1" value=":客服中心頁面" style="shape=umlLifeline;perimeter=lifelinePerimeter;whiteSpace=wrap;html=1;container=0;dropTarget=0;collapsible=0;recursiveResize=0;outlineConnect=0;portConstraint=eastwest;newEdgeStyle={&quot;edgeStyle&quot;:&quot;elbowEdgeStyle&quot;,&quot;elbow&quot;:&quot;vertical&quot;,&quot;curved&quot;:0,&quot;rounded&quot;:0};" vertex="1" parent="1">
          <mxGeometry x="185" y="60" width="100" height="490" as="geometry" />
        </mxCell>
        <mxCell id="GaK5QNJvzm5GvN5kbOxA-2" value="" style="html=1;points=[];perimeter=orthogonalPerimeter;outlineConnect=0;targetShapes=umlLifeline;portConstraint=eastwest;newEdgeStyle={&quot;edgeStyle&quot;:&quot;elbowEdgeStyle&quot;,&quot;elbow&quot;:&quot;vertical&quot;,&quot;curved&quot;:0,&quot;rounded&quot;:0};" vertex="1" parent="GaK5QNJvzm5GvN5kbOxA-1">
          <mxGeometry x="45" y="70" width="10" height="220" as="geometry" />
        </mxCell>
        <mxCell id="GaK5QNJvzm5GvN5kbOxA-3" value="" style="shape=umlLifeline;perimeter=lifelinePerimeter;whiteSpace=wrap;html=1;container=1;dropTarget=0;collapsible=0;recursiveResize=0;outlineConnect=0;portConstraint=eastwest;newEdgeStyle={&quot;edgeStyle&quot;:&quot;elbowEdgeStyle&quot;,&quot;elbow&quot;:&quot;vertical&quot;,&quot;curved&quot;:0,&quot;rounded&quot;:0};participant=umlActor;size=60;" vertex="1" parent="1">
          <mxGeometry x="50" y="50" width="30" height="500" as="geometry" />
        </mxCell>
        <mxCell id="GaK5QNJvzm5GvN5kbOxA-4" value="點選聯絡客服按鈕" style="html=1;verticalAlign=bottom;endArrow=block;edgeStyle=elbowEdgeStyle;elbow=vertical;curved=0;rounded=0;" edge="1" parent="1" source="GaK5QNJvzm5GvN5kbOxA-3" target="GaK5QNJvzm5GvN5kbOxA-2">
          <mxGeometry width="80" relative="1" as="geometry">
            <mxPoint x="64.81034482758616" y="139.9968965517242" as="sourcePoint" />
            <mxPoint x="230" y="139.9968965517242" as="targetPoint" />
            <Array as="points">
              <mxPoint x="150" y="130" />
            </Array>
          </mxGeometry>
        </mxCell>
        <mxCell id="GaK5QNJvzm5GvN5kbOxA-5" value=":客服案件資料庫" style="shape=umlLifeline;perimeter=lifelinePerimeter;whiteSpace=wrap;html=1;container=0;dropTarget=0;collapsible=0;recursiveResize=0;outlineConnect=0;portConstraint=eastwest;newEdgeStyle={&quot;edgeStyle&quot;:&quot;elbowEdgeStyle&quot;,&quot;elbow&quot;:&quot;vertical&quot;,&quot;curved&quot;:0,&quot;rounded&quot;:0};" vertex="1" parent="1">
          <mxGeometry x="370" y="60" width="120" height="490" as="geometry" />
        </mxCell>
        <mxCell id="GaK5QNJvzm5GvN5kbOxA-6" value="" style="html=1;points=[];perimeter=orthogonalPerimeter;outlineConnect=0;targetShapes=umlLifeline;portConstraint=eastwest;newEdgeStyle={&quot;edgeStyle&quot;:&quot;elbowEdgeStyle&quot;,&quot;elbow&quot;:&quot;vertical&quot;,&quot;curved&quot;:0,&quot;rounded&quot;:0};" vertex="1" parent="GaK5QNJvzm5GvN5kbOxA-5">
          <mxGeometry x="55" y="270" width="10" height="80" as="geometry" />
        </mxCell>
        <mxCell id="GaK5QNJvzm5GvN5kbOxA-7" value="顯示客服表單" style="html=1;verticalAlign=bottom;endArrow=open;dashed=1;endSize=8;edgeStyle=elbowEdgeStyle;elbow=horizontal;curved=0;rounded=0;" edge="1" parent="1" source="GaK5QNJvzm5GvN5kbOxA-2" target="GaK5QNJvzm5GvN5kbOxA-3">
          <mxGeometry x="0.0909" relative="1" as="geometry">
            <mxPoint x="60" y="170" as="targetPoint" />
            <Array as="points">
              <mxPoint x="140" y="210" />
            </Array>
            <mxPoint x="225" y="170" as="sourcePoint" />
            <mxPoint as="offset" />
          </mxGeometry>
        </mxCell>
        <mxCell id="GaK5QNJvzm5GvN5kbOxA-8" value="點選發送" style="html=1;verticalAlign=bottom;endArrow=block;edgeStyle=elbowEdgeStyle;elbow=vertical;curved=0;rounded=0;" edge="1" parent="1" source="GaK5QNJvzm5GvN5kbOxA-3" target="GaK5QNJvzm5GvN5kbOxA-2">
          <mxGeometry width="80" relative="1" as="geometry">
            <mxPoint x="80" y="290" as="sourcePoint" />
            <mxPoint x="245" y="290" as="targetPoint" />
            <Array as="points">
              <mxPoint x="160" y="290" />
            </Array>
          </mxGeometry>
        </mxCell>
        <mxCell id="GaK5QNJvzm5GvN5kbOxA-9" value="儲存客服案件" style="html=1;verticalAlign=bottom;endArrow=block;edgeStyle=elbowEdgeStyle;elbow=vertical;curved=0;rounded=0;" edge="1" parent="1" source="GaK5QNJvzm5GvN5kbOxA-2" target="GaK5QNJvzm5GvN5kbOxA-6">
          <mxGeometry width="80" relative="1" as="geometry">
            <mxPoint x="240" y="304.65999999999997" as="sourcePoint" />
            <mxPoint x="405" y="304.65999999999997" as="targetPoint" />
            <Array as="points">
              <mxPoint x="325" y="330" />
            </Array>
          </mxGeometry>
        </mxCell>
      </root>
    </mxGraphModel>
  </diagram>
</mxfile>
